<mxfile host="65bd71144e">
    <diagram id="hhvYA3yOMUWlPuQ0rLfy" name="Page-1">
        <mxGraphModel dx="1294" dy="941" grid="1" gridSize="10" guides="1" tooltips="1" connect="1" arrows="1" fold="1" page="1" pageScale="1" pageWidth="850" pageHeight="1100" math="0" shadow="0">
            <root>
                <mxCell id="0"/>
                <mxCell id="1" parent="0"/>
                <mxCell id="3" value="" style="whiteSpace=wrap;html=1;hachureGap=4;fontFamily=Architects Daughter;fontSource=https%3A%2F%2Ffonts.googleapis.com%2Fcss%3Ffamily%3DArchitects%2BDaughter;fontSize=20;fillColor=#eeeeee;rounded=0;strokeColor=#36393d;" vertex="1" parent="1">
                    <mxGeometry x="30" y="120" width="570" height="640" as="geometry"/>
                </mxCell>
                <mxCell id="17" value="" style="group" vertex="1" connectable="0" parent="1">
                    <mxGeometry x="100" y="660" width="140" height="60" as="geometry"/>
                </mxCell>
                <mxCell id="18" value="" style="whiteSpace=wrap;html=1;fillColor=#eeeeee;strokeColor=#36393d;fontColor=#000000;fontSize=20;" vertex="1" parent="17">
                    <mxGeometry width="140" height="60" as="geometry"/>
                </mxCell>
                <mxCell id="19" value="MemUnit" style="text;strokeColor=none;align=center;fillColor=none;html=1;verticalAlign=middle;whiteSpace=wrap;rounded=0;fontFamily=Helvetica;fontSize=20;fontColor=#000000;" vertex="1" parent="17">
                    <mxGeometry x="42" y="9.230769230769232" width="56" height="13.846153846153848" as="geometry"/>
                </mxCell>
                <mxCell id="20" value="ICache" style="whiteSpace=wrap;html=1;strokeColor=#36393d;fontFamily=Helvetica;fontSize=16;fontColor=#000000;fillColor=#eeeeee;dashed=1;" vertex="1" parent="17">
                    <mxGeometry x="23.33" y="30" width="93.33" height="25.38" as="geometry"/>
                </mxCell>
                <mxCell id="21" value="" style="group" vertex="1" connectable="0" parent="1">
                    <mxGeometry x="100" y="250" width="270" height="80" as="geometry"/>
                </mxCell>
                <mxCell id="6" value="" style="whiteSpace=wrap;html=1;fillColor=#eeeeee;strokeColor=#36393d;fontColor=#000000;fontSize=20;" vertex="1" parent="21">
                    <mxGeometry width="270" height="80" as="geometry"/>
                </mxCell>
                <mxCell id="8" value="Decoder" style="whiteSpace=wrap;html=1;strokeColor=#36393d;fontFamily=Helvetica;fontSize=16;fontColor=#000000;fillColor=#eeeeee;dashed=1;" vertex="1" parent="21">
                    <mxGeometry x="140.4" y="34.285714285714285" width="108" height="33.40571428571428" as="geometry"/>
                </mxCell>
                <mxCell id="9" value="Predictor" style="whiteSpace=wrap;html=1;strokeColor=#36393d;fontFamily=Helvetica;fontSize=16;fontColor=#000000;fillColor=#eeeeee;dashed=1;" vertex="1" parent="21">
                    <mxGeometry x="21.6" y="34.285714285714285" width="108" height="33.40571428571428" as="geometry"/>
                </mxCell>
                <mxCell id="10" value="InsUnit" style="text;strokeColor=none;align=center;fillColor=none;html=1;verticalAlign=middle;whiteSpace=wrap;rounded=0;fontFamily=Helvetica;fontSize=20;fontColor=#000000;" vertex="1" parent="21">
                    <mxGeometry x="81" y="11.426227106227108" width="108" height="18.46153846153846" as="geometry"/>
                </mxCell>
                <mxCell id="26" value="" style="group" vertex="1" connectable="0" parent="1">
                    <mxGeometry x="250" y="450" width="140" height="100" as="geometry"/>
                </mxCell>
                <mxCell id="25" value="" style="whiteSpace=wrap;html=1;strokeColor=#36393d;fontFamily=Helvetica;fontSize=20;fontColor=#000000;fillColor=#eeeeee;" vertex="1" parent="26">
                    <mxGeometry width="140" height="100" as="geometry"/>
                </mxCell>
                <mxCell id="13" value="Reservation Station" style="text;strokeColor=none;align=center;fillColor=none;html=1;verticalAlign=middle;whiteSpace=wrap;rounded=0;fontFamily=Helvetica;fontSize=20;fontColor=#000000;" vertex="1" parent="26">
                    <mxGeometry x="42" y="24.61538461538464" width="56" height="21.92307692307692" as="geometry"/>
                </mxCell>
                <mxCell id="14" value="ALU" style="whiteSpace=wrap;html=1;strokeColor=#36393d;fontFamily=Helvetica;fontSize=16;fontColor=#000000;fillColor=#eeeeee;dashed=1;" vertex="1" parent="26">
                    <mxGeometry x="23.333333333333332" y="68.46153846153845" width="93.33333333333333" height="21.92307692307692" as="geometry"/>
                </mxCell>
                <mxCell id="53" style="edgeStyle=none;rounded=1;html=1;exitX=0.5;exitY=1;exitDx=0;exitDy=0;entryX=0.5;entryY=0;entryDx=0;entryDy=0;strokeColor=#000000;fontFamily=Helvetica;fontSize=16;fontColor=#000000;endArrow=classic;endFill=1;" edge="1" parent="1" source="31" target="18">
                    <mxGeometry relative="1" as="geometry"/>
                </mxCell>
                <mxCell id="31" value="Load-Store Buffer" style="whiteSpace=wrap;html=1;strokeColor=#36393d;fontFamily=Helvetica;fontSize=20;fontColor=#000000;fillColor=#eeeeee;" vertex="1" parent="1">
                    <mxGeometry x="100" y="450" width="140" height="100" as="geometry"/>
                </mxCell>
                <mxCell id="32" value="Thunder" style="text;strokeColor=none;align=center;fillColor=none;html=1;verticalAlign=middle;whiteSpace=wrap;rounded=0;fontFamily=Helvetica;fontSize=24;fontColor=#000000;" vertex="1" parent="1">
                    <mxGeometry x="290" y="140" width="60" height="30" as="geometry"/>
                </mxCell>
                <mxCell id="33" value="HCI" style="whiteSpace=wrap;html=1;strokeColor=#36393d;fontFamily=Helvetica;fontSize=20;fontColor=#000000;fillColor=#eeeeee;" vertex="1" parent="1">
                    <mxGeometry x="85" y="190" width="470" height="30" as="geometry"/>
                </mxCell>
                <mxCell id="60" style="edgeStyle=none;rounded=1;html=1;exitX=0;exitY=0.5;exitDx=0;exitDy=0;strokeColor=#000000;fontFamily=Helvetica;fontSize=16;fontColor=#000000;endArrow=classic;endFill=1;" edge="1" parent="1" source="34">
                    <mxGeometry relative="1" as="geometry">
                        <mxPoint x="240" y="690" as="targetPoint"/>
                    </mxGeometry>
                </mxCell>
                <mxCell id="34" value="RAM" style="whiteSpace=wrap;html=1;strokeColor=#36393d;fontFamily=Helvetica;fontSize=20;fontColor=#000000;fillColor=#eeeeee;" vertex="1" parent="1">
                    <mxGeometry x="400" y="660" width="130" height="60" as="geometry"/>
                </mxCell>
                <mxCell id="36" value="" style="edgeStyle=none;html=1;fontFamily=Helvetica;fontSize=20;fontColor=#000000;strokeColor=#000000;exitX=0.5;exitY=1;exitDx=0;exitDy=0;entryX=0.5;entryY=0;entryDx=0;entryDy=0;" edge="1" parent="1" source="6" target="31">
                    <mxGeometry relative="1" as="geometry">
                        <mxPoint x="170" y="350" as="sourcePoint"/>
                        <Array as="points">
                            <mxPoint x="235" y="410"/>
                            <mxPoint x="170" y="410"/>
                        </Array>
                    </mxGeometry>
                </mxCell>
                <mxCell id="38" style="edgeStyle=none;html=1;exitX=0.5;exitY=1;exitDx=0;exitDy=0;entryX=0.5;entryY=0;entryDx=0;entryDy=0;strokeColor=#000000;fontFamily=Helvetica;fontSize=20;fontColor=#000000;" edge="1" parent="1" source="6" target="25">
                    <mxGeometry relative="1" as="geometry">
                        <Array as="points">
                            <mxPoint x="235" y="410"/>
                            <mxPoint x="320" y="410"/>
                        </Array>
                    </mxGeometry>
                </mxCell>
                <mxCell id="39" value="Issue" style="text;strokeColor=none;align=center;fillColor=none;html=1;verticalAlign=middle;whiteSpace=wrap;rounded=0;fontFamily=Helvetica;fontSize=16;fontColor=#000000;rotation=-90;" vertex="1" parent="1">
                    <mxGeometry x="190" y="350" width="60" height="30" as="geometry"/>
                </mxCell>
                <mxCell id="56" style="edgeStyle=none;rounded=1;html=1;exitX=1;exitY=0.5;exitDx=0;exitDy=0;strokeColor=#FF3399;fontFamily=Helvetica;fontSize=16;fontColor=#000000;endArrow=classic;endFill=1;entryX=1;entryY=0.5;entryDx=0;entryDy=0;" edge="1" parent="1" source="44" target="45">
                    <mxGeometry relative="1" as="geometry">
                        <Array as="points">
                            <mxPoint x="550" y="500"/>
                            <mxPoint x="550" y="290"/>
                        </Array>
                    </mxGeometry>
                </mxCell>
                <mxCell id="71" style="edgeStyle=none;rounded=1;html=1;exitX=1;exitY=0.5;exitDx=0;exitDy=0;entryX=0.25;entryY=0;entryDx=0;entryDy=0;strokeColor=#FF3399;fontFamily=Helvetica;fontSize=16;fontColor=#000000;endArrow=classic;endFill=1;fillColor=#ffff88;" edge="1" parent="1" source="44" target="25">
                    <mxGeometry relative="1" as="geometry">
                        <Array as="points">
                            <mxPoint x="550" y="500"/>
                            <mxPoint x="550" y="400"/>
                            <mxPoint x="285" y="400"/>
                        </Array>
                    </mxGeometry>
                </mxCell>
                <mxCell id="73" style="edgeStyle=none;rounded=1;html=1;exitX=1;exitY=0.5;exitDx=0;exitDy=0;entryX=0.25;entryY=0;entryDx=0;entryDy=0;strokeColor=#FF3399;fontFamily=Helvetica;fontSize=16;fontColor=#000000;endArrow=classic;endFill=1;" edge="1" parent="1" source="44" target="31">
                    <mxGeometry relative="1" as="geometry">
                        <Array as="points">
                            <mxPoint x="550" y="500"/>
                            <mxPoint x="550" y="400"/>
                            <mxPoint x="135" y="400"/>
                        </Array>
                    </mxGeometry>
                </mxCell>
                <mxCell id="44" value="Reorder&lt;br&gt;Buffer" style="whiteSpace=wrap;html=1;strokeColor=#36393d;fontFamily=Helvetica;fontSize=20;fontColor=#000000;fillColor=#eeeeee;" vertex="1" parent="1">
                    <mxGeometry x="400" y="450" width="130" height="100" as="geometry"/>
                </mxCell>
                <mxCell id="74" style="edgeStyle=none;rounded=1;html=1;exitX=0.5;exitY=1;exitDx=0;exitDy=0;entryX=0.75;entryY=0;entryDx=0;entryDy=0;strokeColor=#E88B2E;fontFamily=Helvetica;fontSize=16;fontColor=#000000;endArrow=classic;endFill=1;" edge="1" parent="1" source="45" target="31">
                    <mxGeometry relative="1" as="geometry">
                        <Array as="points">
                            <mxPoint x="465" y="390"/>
                            <mxPoint x="205" y="390"/>
                        </Array>
                    </mxGeometry>
                </mxCell>
                <mxCell id="75" style="edgeStyle=none;rounded=1;html=1;exitX=0.5;exitY=1;exitDx=0;exitDy=0;entryX=0.75;entryY=0;entryDx=0;entryDy=0;strokeColor=#E88B2E;fontFamily=Helvetica;fontSize=16;fontColor=#000000;endArrow=classic;endFill=1;startArrow=none;" edge="1" parent="1" source="77" target="25">
                    <mxGeometry relative="1" as="geometry">
                        <Array as="points">
                            <mxPoint x="355" y="390"/>
                        </Array>
                    </mxGeometry>
                </mxCell>
                <mxCell id="45" value="Register&lt;br&gt;File" style="whiteSpace=wrap;html=1;strokeColor=#36393d;fontFamily=Helvetica;fontSize=20;fontColor=#000000;fillColor=#eeeeee;" vertex="1" parent="1">
                    <mxGeometry x="395" y="250" width="140" height="80" as="geometry"/>
                </mxCell>
                <mxCell id="46" style="edgeStyle=none;rounded=1;html=1;exitX=0.5;exitY=1;exitDx=0;exitDy=0;entryX=0.5;entryY=0;entryDx=0;entryDy=0;strokeColor=#000000;fontFamily=Helvetica;fontSize=16;fontColor=#000000;endArrow=classic;endFill=1;" edge="1" parent="1" source="6" target="44">
                    <mxGeometry relative="1" as="geometry">
                        <Array as="points">
                            <mxPoint x="235" y="410"/>
                            <mxPoint x="465" y="410"/>
                        </Array>
                    </mxGeometry>
                </mxCell>
                <mxCell id="49" value="Load/Store" style="text;strokeColor=none;align=center;fillColor=none;html=1;verticalAlign=middle;whiteSpace=wrap;rounded=0;fontFamily=Helvetica;fontSize=16;fontColor=#000000;rotation=-90;" vertex="1" parent="1">
                    <mxGeometry x="125" y="590" width="50" height="30" as="geometry"/>
                </mxCell>
                <mxCell id="50" style="edgeStyle=none;rounded=1;html=1;entryX=0.5;entryY=1;entryDx=0;entryDy=0;strokeColor=#6666FF;fontFamily=Helvetica;fontSize=16;fontColor=#000000;endArrow=classic;endFill=1;exitX=0.75;exitY=1;exitDx=0;exitDy=0;fillColor=#ffff88;" edge="1" parent="1" source="31" target="44">
                    <mxGeometry relative="1" as="geometry">
                        <mxPoint x="170" y="550" as="sourcePoint"/>
                        <Array as="points">
                            <mxPoint x="205" y="630"/>
                            <mxPoint x="465" y="630"/>
                        </Array>
                    </mxGeometry>
                </mxCell>
                <mxCell id="51" style="edgeStyle=none;rounded=1;html=1;exitX=0.5;exitY=1;exitDx=0;exitDy=0;entryX=0.5;entryY=1;entryDx=0;entryDy=0;strokeColor=#6666FF;fontFamily=Helvetica;fontSize=16;fontColor=#000000;endArrow=classic;endFill=1;fillColor=#ffff88;" edge="1" parent="1" source="25" target="44">
                    <mxGeometry relative="1" as="geometry">
                        <Array as="points">
                            <mxPoint x="320" y="610"/>
                            <mxPoint x="465" y="610"/>
                        </Array>
                    </mxGeometry>
                </mxCell>
                <mxCell id="55" value="CDB" style="text;strokeColor=none;align=center;fillColor=none;html=1;verticalAlign=middle;whiteSpace=wrap;rounded=0;fontFamily=Helvetica;fontSize=16;fontColor=#000000;rotation=-90;" vertex="1" parent="1">
                    <mxGeometry x="425" y="570" width="50" height="30" as="geometry"/>
                </mxCell>
                <mxCell id="58" value="Commit" style="text;strokeColor=none;align=center;fillColor=none;html=1;verticalAlign=middle;whiteSpace=wrap;rounded=0;fontFamily=Helvetica;fontSize=16;fontColor=#000000;rotation=-90;" vertex="1" parent="1">
                    <mxGeometry x="535" y="340" width="60" height="30" as="geometry"/>
                </mxCell>
                <mxCell id="61" style="edgeStyle=none;rounded=1;html=1;exitX=1;exitY=0.5;exitDx=0;exitDy=0;strokeColor=#000000;fontFamily=Helvetica;fontSize=16;fontColor=#000000;endArrow=classic;endFill=1;entryX=0;entryY=0.5;entryDx=0;entryDy=0;" edge="1" parent="1" source="18" target="34">
                    <mxGeometry relative="1" as="geometry"/>
                </mxCell>
                <mxCell id="62" style="edgeStyle=none;rounded=1;html=1;exitX=0;exitY=0.5;exitDx=0;exitDy=0;entryX=0;entryY=0.5;entryDx=0;entryDy=0;strokeColor=#000000;fontFamily=Helvetica;fontSize=16;fontColor=#000000;endArrow=classic;endFill=1;" edge="1" parent="1" source="18" target="6">
                    <mxGeometry relative="1" as="geometry">
                        <Array as="points">
                            <mxPoint x="80" y="690"/>
                            <mxPoint x="80" y="290"/>
                        </Array>
                    </mxGeometry>
                </mxCell>
                <mxCell id="65" value="Inst Fetch" style="text;strokeColor=none;align=center;fillColor=none;html=1;verticalAlign=middle;whiteSpace=wrap;rounded=0;fontFamily=Helvetica;fontSize=16;fontColor=#000000;rotation=-90;" vertex="1" parent="1">
                    <mxGeometry x="10" y="450" width="100" height="30" as="geometry"/>
                </mxCell>
                <mxCell id="69" value="Mem In/Out" style="text;strokeColor=none;align=center;fillColor=none;html=1;verticalAlign=middle;whiteSpace=wrap;rounded=0;fontFamily=Helvetica;fontSize=16;fontColor=#000000;rotation=0;" vertex="1" parent="1">
                    <mxGeometry x="275" y="660" width="95" height="30" as="geometry"/>
                </mxCell>
                <mxCell id="76" style="edgeStyle=none;rounded=1;html=1;exitX=0.25;exitY=0;exitDx=0;exitDy=0;entryX=0.25;entryY=1;entryDx=0;entryDy=0;strokeColor=#000000;fontFamily=Helvetica;fontSize=16;fontColor=#000000;endArrow=classic;endFill=1;" edge="1" parent="1" source="18" target="31">
                    <mxGeometry relative="1" as="geometry"/>
                </mxCell>
                <mxCell id="77" value="Reg Val Req" style="text;strokeColor=none;align=center;fillColor=none;html=1;verticalAlign=middle;whiteSpace=wrap;rounded=0;fontFamily=Helvetica;fontSize=16;fontColor=#000000;rotation=0;" vertex="1" parent="1">
                    <mxGeometry x="310" y="360" width="110" height="30" as="geometry"/>
                </mxCell>
            </root>
        </mxGraphModel>
    </diagram>
</mxfile>